<svg xmlns="http://www.w3.org/2000/svg" viewBox="0 0 200 200" width="200" height="200">
  <!-- Plate base -->
  <circle cx="100" cy="100" r="80" fill="#f5f5f5" stroke="#ddd" stroke-width="2"/>
  <circle cx="100" cy="100" r="70" fill="none" stroke="#ddd" stroke-width="1"/>
  <circle cx="100" cy="100" r="60" fill="none" stroke="#ddd" stroke-width="1"/>
  
  <!-- Crack lines -->
  <path d="M100,20 L100,180" stroke="#e74c3c" stroke-width="2" stroke-dasharray="5,5"/>
  <path d="M20,100 L180,100" stroke="#e74c3c" stroke-width="2" stroke-dasharray="5,5"/>
  <path d="M40,40 L160,160" stroke="#e74c3c" stroke-width="2" stroke-dasharray="5,5"/>
  <path d="M160,40 L40,160" stroke="#e74c3c" stroke-width="2" stroke-dasharray="5,5"/>
  
  <!-- Broken pieces -->
  <path d="M100,20 A80,80 0 0,1 180,100 L100,100 Z" fill="#f8f9fa" stroke="#ddd" stroke-width="1"/>
  <path d="M180,100 A80,80 0 0,1 100,180 L100,100 Z" fill="#f8f9fa" stroke="#ddd" stroke-width="1"/>
  <path d="M100,180 A80,80 0 0,1 20,100 L100,100 Z" fill="#f8f9fa" stroke="#ddd" stroke-width="1"/>
  <path d="M20,100 A80,80 0 0,1 100,20 L100,100 Z" fill="#f8f9fa" stroke="#ddd" stroke-width="1"/>
</svg> 